<?xml version="1.0" encoding="utf-8"?>
<!-- Generator: Adobe Illustrator 21.0.0, SVG Export Plug-In . SVG Version: 6.00 Build 0)  -->
<svg version="1.1" id="w" xmlns="http://www.w3.org/2000/svg" xmlns:xlink="http://www.w3.org/1999/xlink" x="0px" y="0px"
	 viewBox="0 0 283.5 283.5" style="enable-background:new 0 0 283.5 283.5;" xml:space="preserve">
<style type="text/css">
	.st0{fill:rgb(23, 236, 176);}
	.st1{display:none;fill:rgb(23, 236, 176);}
</style>
<polygon class="st0" points="141.7,16.6 0,102.3 102.4,164.4 102.4,241.6 135.6,263.2 120.9,239.6 120.9,137.3 45.7,92 141.7,33.4
	"/>
<polygon class="st0" points="141.7,16.6 283.5,102.3 181,164.4 181,241.4 147.8,263.2 162.6,239.6 162.6,158.8 238,112.9
	113.2,37.6 "/>
<polyline class="st0" points="84.6,174.6 14,131.6 14,169.6 84.6,212.3 84.6,163.6 "/>
<polyline class="st0" points="198.8,174.6 269.5,131.6 269.5,169.6 198.8,212.3 198.8,163.6 "/>
<polyline class="st1" points="130.9,232.5 130.9,70.3 152.9,85.3 152.9,232.5 141.7,227.1 130.9,232.5 "/>
<path class="st0" d="M130.9,232.5"/>
</svg>
